<?xml version="1.0" encoding="UTF-8"?><svg id="a" xmlns="http://www.w3.org/2000/svg" width="143.48" height="212.24" viewBox="0 0 143.48 212.24"><defs><style>.b{fill:#ffeb00;}.c{fill:#09b1a8;}</style></defs><path class="c" d="M-.19,72.65v19.31c0,8.1,6.57,14.66,14.66,14.66H31.87c8.1,0,14.66,6.57,14.66,14.66v76.2c0,8.1,6.57,14.66,14.66,14.66h12.71c8.15,0,14.74-6.65,14.66-14.8l-1.25-139.36H14.47C6.37,57.99-.19,64.55-.19,72.65Z"/><path class="b" d="M128.32-.06c-8.31,.16-18.61,.35-26.87,.44-8.09,.09-14.57,6.71-14.5,14.79l.38,42.82h41.28c8.1,0,14.66-6.57,14.66-14.66V14.6c0-8.21-6.74-14.82-14.95-14.66Z"/></svg>